<svg id="Group_35" data-name="Group 35" xmlns="http://www.w3.org/2000/svg" width="37.683" height="62.518" viewBox="0 0 37.683 62.518">
  <path id="Path_19" data-name="Path 19" d="M47.578,41.94l-3.406,9.279,13.312-.054,1.627-9.225ZM21.428,22.2v53.23H31.7V60.479h9.073l3.4-9.26L31.7,51.256v-19.8h9.073l3.4-9.251Zm26.15-9.288L44.172,22.2H57.415l1.627-9.288Z" transform="translate(-21.428 -12.916)" fill="#36bbeb"/>
  <path id="Path_20" data-name="Path 20" d="M47.578,41.94l-3.406,9.279,13.312-.054,1.627-9.225ZM21.428,22.2v53.23H31.7V60.479h9.073l3.4-9.26L31.7,51.256v-19.8h9.073l3.4-9.251Zm26.15-9.288L44.172,22.2H57.415l1.627-9.288Z" transform="translate(-21.428 -12.916)" fill="#36bbeb"/>
</svg>
