<svg xmlns="http://www.w3.org/2000/svg" width="26.516" height="21.55" viewBox="0 0 26.516 21.55">
  <path id="Path_11" data-name="Path 11" d="M83.339,119.961a15.373,15.373,0,0,0,15.479-15.479c0-.236,0-.47-.016-.7a11.068,11.068,0,0,0,2.714-2.817,10.859,10.859,0,0,1-3.124.856,5.458,5.458,0,0,0,2.392-3.009,10.9,10.9,0,0,1-3.454,1.32,5.445,5.445,0,0,0-9.271,4.962,15.445,15.445,0,0,1-11.213-5.684,5.445,5.445,0,0,0,1.684,7.263,5.4,5.4,0,0,1-2.464-.681c0,.023,0,.046,0,.069a5.443,5.443,0,0,0,4.364,5.333,5.432,5.432,0,0,1-2.457.093,5.446,5.446,0,0,0,5.082,3.779,10.917,10.917,0,0,1-6.757,2.329,11.065,11.065,0,0,1-1.3-.075,15.4,15.4,0,0,0,8.339,2.444" transform="translate(-75 -98.411)" fill="#051c42"/>
</svg>
